<?xml version="1.0" standalone="no"?><!DOCTYPE svg PUBLIC "-//W3C//DTD SVG 1.1//EN" "http://www.w3.org/Graphics/SVG/1.1/DTD/svg11.dtd"><svg class="icon" width="200px" height="200.00px" viewBox="0 0 1024 1024" version="1.1" xmlns="http://www.w3.org/2000/svg"><path fill="#515151" d="M426.666667 227.555556v-28.444445A28.444444 28.444444 0 0 1 455.111111 170.666667h113.777778a28.444444 28.444444 0 0 1 28.444444 28.444444V227.555556h170.666667a28.444444 28.444444 0 1 1 0 56.888888h-512a28.444444 28.444444 0 0 1 0-56.888888h170.666667zM341.333333 341.333333h341.333334a56.888889 56.888889 0 0 1 56.888889 56.888889v398.222222a56.888889 56.888889 0 0 1-56.888889 56.888889H341.333333a56.888889 56.888889 0 0 1-56.888889-56.888889V398.222222a56.888889 56.888889 0 0 1 56.888889-56.888889z m56.888889 113.777778a28.444444 28.444444 0 0 0-28.444444 28.444445v227.555555a28.444444 28.444444 0 1 0 56.888889 0v-227.555555A28.444444 28.444444 0 0 0 398.222222 455.111111z m113.777778 0a28.444444 28.444444 0 0 0-28.444444 28.444445v227.555555a28.444444 28.444444 0 1 0 56.888888 0v-227.555555A28.444444 28.444444 0 0 0 512 455.111111z m113.777778 0a28.444444 28.444444 0 0 0-28.444445 28.444445v227.555555a28.444444 28.444444 0 1 0 56.888889 0v-227.555555A28.444444 28.444444 0 0 0 625.777778 455.111111z"  /></svg>