<?xml version="1.0" encoding="UTF-8"?>
<svg width="80px" height="80px" viewBox="0 0 80 80" version="1.1" xmlns="http://www.w3.org/2000/svg" xmlns:xlink="http://www.w3.org/1999/xlink">
    <title>auth</title>
    <defs>
        <path d="M0,40 C0,62.0912821 17.9087179,80 40,80 L40,80 C62.0902564,80 79.9989744,62.0912821 79.9989744,40 L79.9989744,40 C79.9989744,17.9097436 62.0902564,0.00102564103 40,0.00102564103 L40,0.00102564103 C17.9087179,0.00102564103 0,17.9097436 0,40" id="path-1"></path>
        <linearGradient x1="6.69158566%" y1="24.9948617%" x2="93.3096915%" y2="75.0038512%" id="linearGradient-3">
            <stop stop-color="#93D831" offset="0%"></stop>
            <stop stop-color="#38A352" offset="100%"></stop>
        </linearGradient>
    </defs>
    <g id="签署" stroke="none" stroke-width="1" fill="none" fill-rule="evenodd">
        <g id="CLA_Sign_Web_en1" transform="translate(-920.000000, -1674.000000)">
            <g id="guide" transform="translate(400.000000, 810.000000)">
                <g id="corporation_guide" transform="translate(0.000000, 140.000000)">
                    <g id="s4" transform="translate(55.000000, 716.000000)">
                        <g id="auth" transform="translate(465.000000, 8.000000)">
                            <g id="Group-3">
                                <mask id="mask-2" fill="white">
                                    <use xlink:href="#path-1"></use>
                                </mask>
                                <g id="Clip-2"></g>
                                <path d="M0,40 C0,62.0912821 17.9087179,80 40,80 L40,80 C62.0902564,80 79.9989744,62.0912821 79.9989744,40 L79.9989744,40 C79.9989744,17.9097436 62.0902564,0.00102564103 40,0.00102564103 L40,0.00102564103 C17.9087179,0.00102564103 0,17.9097436 0,40" id="Fill-1" fill="url(#linearGradient-3)" mask="url(#mask-2)"></path>
                            </g>
                            <g id="Group-8" transform="translate(22.564103, 21.538462)" stroke="#FFFFFF" stroke-width="2">
                                <line x1="1.67148718" y1="36.5669744" x2="33.2007179" y2="36.5669744" id="Stroke-4" stroke-linecap="round"></line>
                                <path d="M6.57630769,31.8884103 L0.357846154,31.8884103 L0.357846154,24.0053333 C0.357846154,21.8381538 2.13117949,20.0658462 4.29835897,20.0658462 L12.7065641,20.0658462 C12.444,18.4894359 11.6552821,16.977641 10.538359,15.6648205 C9.02861538,13.9571282 8.23989744,11.7878974 8.23989744,9.55610256 C8.23989744,7.05969231 9.22553846,4.6945641 11.0645128,2.92123077 C12.9034872,1.14687179 15.2686154,0.293538462 17.829641,0.360205128 C22.5588718,0.556102564 26.5660513,4.62892308 26.6316923,9.35815385 C26.6973333,11.7232821 25.778359,14.0217436 24.2019487,15.7961026 C23.0850256,16.977641 22.4275897,18.4227692 22.1650256,20.0658462 L30.5732308,20.0658462 C32.7404103,20.0658462 34.5137436,21.8381538 34.5137436,24.0053333 L34.5137436,31.8884103 L11.6942564,31.8884103" id="Stroke-6"></path>
                            </g>
                        </g>
                    </g>
                </g>
            </g>
        </g>
    </g>
</svg>