<?xml version="1.0" standalone="no"?><!DOCTYPE svg PUBLIC "-//W3C//DTD SVG 1.1//EN" "http://www.w3.org/Graphics/SVG/1.1/DTD/svg11.dtd"><svg class="icon" width="200px" height="200.00px" viewBox="0 0 1024 1024" version="1.1" xmlns="http://www.w3.org/2000/svg"><path fill="#707070" d="M512.1 959.8h-1.9c-119.6-0.5-231.9-47.5-316.1-132.4S63.7 629.8 64.2 510.2c1-246.3 201.7-446 447.8-446h1.8c246.9 1 447 202.7 446 449.6-0.5 119.6-47.5 231.9-132.4 316.1-84.5 83.8-196.4 129.9-315.3 129.9z m-0.1-853.2c-222.8 0-404.5 180.8-405.4 403.8-0.4 108.3 41.3 210.2 117.6 287.1 76.3 76.9 177.9 119.4 286.2 119.9h1.7c107.7 0 209-41.7 285.5-117.6 76.9-76.3 119.4-177.9 119.9-286.2 0.9-223.5-180.2-406.1-403.8-407H512zM512 764.4m-43.9 0a43.9 43.9 0 1 0 87.8 0 43.9 43.9 0 1 0-87.8 0ZM512 811.8c-26.1 0-47.4-21.3-47.4-47.4 0-26.1 21.3-47.4 47.4-47.4 26.1 0 47.4 21.3 47.4 47.4 0 26.1-21.3 47.4-47.4 47.4z m0-87.7c-22.2 0-40.3 18.1-40.3 40.3 0 22.2 18.1 40.3 40.3 40.3s40.3-18.1 40.3-40.3c0-22.2-18.1-40.3-40.3-40.3zM606.7 501c-49.6 36.1-71.9 79.7-67.3 130.8 0.3 1.7 0.5 3.4 0.5 5.1 0 17.8-14.5 32.3-32.3 32.3-17.8 0-32.3-14.5-32.3-32.3 0-0.8 0.2-1.5 0.2-2.2h-0.1c-1.9-36.8 2-65 11.8-84.4 5.8-17.5 25.3-42.7 58.3-75.7l5.8-5.8c40.8-34.9 59.3-66.9 55.5-96-5.7-56.3-35.8-85.5-90.1-87.6-67.7 1.9-100.7 41.3-99.2 118.3 0 0.6 0.2 1.1 0.2 1.6 0 18.5-15 33.6-33.6 33.6-18.5 0-33.6-15-33.6-33.6 0-0.2 0.1-0.5 0.1-0.7-1.8-64.1 18.6-110.6 61.4-139.7 29.2-23.3 65.1-34.9 107.8-34.8 97 7.9 148.5 56.5 154.1 145.8 1.8 40.9-20.6 82.7-67.2 125.3zM507.6 672.7c-19.8 0-35.8-16.1-35.8-35.8 0-0.6 0.1-1.2 0.1-1.8v-0.2c-1.9-37.2 2.2-66.1 12.1-85.9 6.1-18.1 25.5-43.2 59.1-76.8l4.6-4.6 1.4-1.4c39.7-33.9 57.9-65.2 54.3-92.8-5.6-54.8-33.9-82.4-86.6-84.5-65.9 1.9-97.2 39.4-95.7 114.6v0.3c0.1 0.5 0.1 0.9 0.1 1.4 0 20.5-16.6 37.1-37.1 37.1S347 425.7 347 405.2v-0.6c-1.9-65 19.3-113 62.8-142.6 29.6-23.6 66.5-35.5 109.5-35.5h0.7c98.7 8.1 151.6 58.2 157.4 149.1 1.9 41.8-21.1 84.8-68.3 128l-0.3 0.2c-48.1 35-70.3 77.9-65.9 127.5 0.3 1.8 0.5 3.6 0.5 5.6 0 19.8-16 35.8-35.8 35.8z m-28.8-41.5h0.4l-0.2 3.8c0 0.4-0.1 0.8-0.1 1.1 0 0.3-0.1 0.5-0.1 0.8 0 15.9 12.9 28.8 28.8 28.8s28.8-12.9 28.8-28.8c0-1.5-0.2-3-0.5-4.6v-0.2c-4.7-52.2 18.4-97.2 68.6-133.9 45.5-41.6 67.7-82.7 65.9-122.2-5.6-87.9-54.9-134.6-150.7-142.4h-0.2c-41.5 0-76.9 11.5-105.2 34l-0.2 0.2c-40.7 27.7-60.8 72.5-59.9 133.2h0.1v3.6c0 0.3 0 0.6-0.1 0.8 0 16.4 13.5 29.9 30.1 29.9s30-13.5 30-30c0-0.1 0-0.3-0.1-0.4 0-0.3-0.1-0.7-0.1-1-1.6-79 33-120 102.7-122h0.2c56.2 2.2 87.6 32.7 93.5 90.8 4 30.1-15 63.4-56.6 99l-1.1 1.1c-1.5 1.5-3.1 3-4.6 4.5-32.6 32.5-51.9 57.5-57.5 74.3l-0.2 0.5c-9.2 17.9-13.1 44.6-11.7 79.1z" /></svg>