<?xml version="1.0" encoding="UTF-8"?>
<svg width="80px" height="80px" viewBox="0 0 80 80" version="1.1" xmlns="http://www.w3.org/2000/svg" xmlns:xlink="http://www.w3.org/1999/xlink">
    <title>click</title>
    <defs>
        <path d="M0,40 C0,62.0912821 17.9087179,80 40,80 L40,80 C62.0912821,80 80,62.0912821 80,40 L80,40 C80,17.9097436 62.0912821,0.00102564103 40,0.00102564103 L40,0.00102564103 C17.9087179,0.00102564103 0,17.9097436 0,40" id="path-1"></path>
        <linearGradient x1="6.69149987%" y1="24.9955029%" x2="93.3084953%" y2="75.0032101%" id="linearGradient-3">
            <stop stop-color="#93D831" offset="0%"></stop>
            <stop stop-color="#38A352" offset="100%"></stop>
        </linearGradient>
    </defs>
    <g id="签署" stroke="none" stroke-width="1" fill="none" fill-rule="evenodd">
        <g id="CLA_Sign_Web_en1" transform="translate(-920.000000, -1254.000000)">
            <g id="guide" transform="translate(400.000000, 810.000000)">
                <g id="corporation_guide" transform="translate(0.000000, 140.000000)">
                    <g id="click" transform="translate(520.000000, 304.000000)">
                        <g id="Group-3">
                            <mask id="mask-2" fill="white">
                                <use xlink:href="#path-1"></use>
                            </mask>
                            <g id="Clip-2"></g>
                            <path d="M0,40 C0,62.0912821 17.9087179,80 40,80 L40,80 C62.0912821,80 80,62.0912821 80,40 L80,40 C80,17.9097436 62.0912821,0.00102564103 40,0.00102564103 L40,0.00102564103 C17.9087179,0.00102564103 0,17.9097436 0,40" id="Fill-1" fill="url(#linearGradient-3)" mask="url(#mask-2)"></path>
                        </g>
                        <g id="Group-10" transform="translate(21.538462, 21.538462)" stroke="#FFFFFF" stroke-width="2">
                            <path d="M30.7977436,25.6664615 L36.4490256,31.3177436 C36.9105641,31.7895385 36.9105641,32.528 36.4490256,32.9905641 L33.2695385,36.1895385 C33.0438974,36.4049231 32.7464615,36.528 32.4285128,36.528 C32.1208205,36.528 31.8131282,36.4049231 31.5874872,36.1895385 L25.9362051,30.528" id="Stroke-4"></path>
                            <path d="M21.868,34.1059487 C21.3326154,34.1059487 20.8638974,33.7459487 20.7264615,33.2300513 L16.6628718,18.0638974 C16.5541538,17.6567179 16.6710769,17.2218462 16.9695385,16.9244103 C17.2669744,16.6259487 17.7018462,16.5100513 18.1090256,16.6177436 L33.2731282,20.6813333 C33.6813333,20.7921026 34.0003077,21.1100513 34.1100513,21.5182564 C34.2187692,21.9264615 34.1018462,22.3613333 33.8033846,22.6597949 L22.7038974,33.7592821 C22.482359,33.9818462 22.1818462,34.1059487 21.868,34.1059487 Z" id="Stroke-6"></path>
                            <path d="M12.8300513,32.3862564 C5.5654359,30.7934359 0.127487179,24.3206154 0.127487179,16.5780513 C0.127487179,7.64061538 7.37364103,0.395487179 16.3110769,0.395487179 C23.4792821,0.395487179 29.5592821,5.056 31.6854359,11.5113846" id="Stroke-8"></path>
                        </g>
                    </g>
                </g>
            </g>
        </g>
    </g>
</svg>