<?xml version="1.0" standalone="no"?><!DOCTYPE svg PUBLIC "-//W3C//DTD SVG 1.1//EN" "http://www.w3.org/Graphics/SVG/1.1/DTD/svg11.dtd"><svg class="icon" width="200px" height="200.00px" viewBox="0 0 1024 1024" version="1.1" xmlns="http://www.w3.org/2000/svg"><path fill="#2c2c2c" d="M767.98 815.98c-12.31 0-24.56-4.69-33.94-14.06l-512-512c-18.75-18.75-18.75-49.12 0-67.88s49.13-18.75 67.88 0l512 512c18.75 18.75 18.75 49.12 0 67.88-9.38 9.38-21.63 14.06-33.94 14.06z"  /><path fill="#2c2c2c" d="M255.98 815.98c-12.31 0-24.56-4.69-33.94-14.06-18.75-18.75-18.75-49.12 0-67.88l512-512c18.75-18.75 49.12-18.75 67.88 0s18.75 49.12 0 67.88l-512 512c-9.38 9.38-21.63 14.06-33.94 14.06z"  /></svg>