<?xml version="1.0" encoding="UTF-8"?>
<svg width="100px" height="100px" viewBox="0 0 100 100" version="1.1" xmlns="http://www.w3.org/2000/svg" xmlns:xlink="http://www.w3.org/1999/xlink">
    <title>Employee</title>
    <g id="签署" stroke="none" stroke-width="1" fill="none" fill-rule="evenodd">
        <g id="CLA_Sign_Web_en1" transform="translate(-910.000000, -990.000000)">
            <g id="guide" transform="translate(400.000000, 810.000000)">
                <g id="tab" transform="translate(129.000000, 180.000000)">
                    <g id="employee" transform="translate(377.000000, 0.000000)">
                        <g id="Employee" transform="translate(4.000000, 0.000000)">
                            <rect id="Rectangle" x="0" y="0" width="100" height="100"></rect>
                            <line x1="24.6504054" y1="84.6926575" x2="73.5801351" y2="85.0132055" id="Stroke-1" stroke="#1D1D1B" stroke-width="4" stroke-linecap="round"></line>
                            <line x1="49.1155662" y1="47.5705425" x2="49.1155662" y2="57.1347068" id="Stroke-3" stroke="#2E9C55" stroke-width="4" stroke-linecap="round"></line>
                            <g id="Group-10" transform="translate(13.000000, 14.000000)" stroke="#1D1D1B" stroke-width="4">
                                <path d="M20.8404149,48.0317918 L20.8404149,37.9517918 C20.8404149,35.4505315 22.8686311,33.4217096 25.3703608,33.4217096 L46.8599824,33.4217096 C49.3626986,33.4217096 51.3909149,35.4505315 51.3909149,37.9517918 L51.3909149,48.0406685" id="Stroke-4"></path>
                                <path d="M36.1155662,26.1144986 C31.7089311,26.1144986 28.1230527,22.5292932 28.1230527,18.1234849 C28.1230527,13.7176767 31.7059716,10.1304986 36.1155662,10.1304986 C40.5241743,10.1304986 44.1080797,13.7157041 44.1080797,18.1215123 C44.1080797,22.5263342 40.5222014,26.1144986 36.1155662,26.1144986 Z" id="Stroke-6"></path>
                                <path d="M63.9076527,57.295726 L8.32308514,57.295726 C3.72605811,57.295726 9.86486487e-05,53.5694795 9.86486487e-05,48.9733151 L9.86486487e-05,9.19676712 C9.86486487e-05,4.60158904 3.72605811,0.875342466 8.32308514,0.875342466 L63.9076527,0.875342466 C68.5046797,0.875342466 72.2306392,4.60158904 72.2306392,9.19676712 L72.2306392,48.9733151 C72.2306392,53.5694795 68.5046797,57.295726 63.9076527,57.295726 Z" id="Stroke-8"></path>
                            </g>
                        </g>
                    </g>
                </g>
            </g>
        </g>
    </g>
</svg>