<?xml version="1.0" encoding="UTF-8"?>
<svg width="100px" height="100px" viewBox="0 0 100 100" version="1.1" xmlns="http://www.w3.org/2000/svg" xmlns:xlink="http://www.w3.org/1999/xlink">
    <title>Enterprise</title>
    <g id="签署" stroke="none" stroke-width="1" fill="none" fill-rule="evenodd">
        <g id="CLA_Sign_Web_en1" transform="translate(-534.000000, -990.000000)">
            <g id="guide" transform="translate(400.000000, 810.000000)">
                <g id="tab" transform="translate(129.000000, 180.000000)">
                    <g id="Enterprise" transform="translate(5.000000, 0.000000)">
                        <rect id="Rectangle" x="0" y="0" width="100" height="100"></rect>
                        <path d="M63.9059616,85.5065534 L14.0000986,85.5065534 L14.0000986,22.0449644 C14.0000986,17.6016767 17.6020712,13.9997041 22.0443726,13.9997041 L55.8616877,13.9997041 C60.303989,13.9997041 63.9059616,17.6016767 63.9059616,22.0449644 L63.9059616,85.5065534 Z" id="Stroke-1" stroke="#1D1D1B" stroke-width="4"></path>
                        <path d="M48.990126,85.5065534 L28.9159342,85.5065534 C28.0864548,85.5065534 27.4147836,84.8338959 27.4147836,84.0054027 L27.4147836,70.4072658 C27.4147836,65.9945534 30.9920986,62.4162521 35.4067836,62.4162521 L42.4992767,62.4162521 C46.9139616,62.4162521 50.4912767,65.9945534 50.4912767,70.4072658 L50.4912767,84.0054027 C50.4912767,84.8338959 49.8196055,85.5065534 48.990126,85.5065534 Z" id="Stroke-3" stroke="#1D1D1B" stroke-width="4"></path>
                        <path d="M70.9276384,35.6010849 L79.0685699,35.6010849 C82.6241863,35.6010849 85.5071452,38.4840438 85.5071452,42.0396603 L85.5071452,85.5069479 L14.0002959,85.5069479 L14.0002959,35.6010849" id="Stroke-5" stroke="#1D1D1B" stroke-width="4"></path>
                        <line x1="27.4074849" y1="43.049337" x2="50.4987726" y2="43.049337" id="Stroke-7" stroke="#2E9C55" stroke-width="4" stroke-linecap="round"></line>
                        <line x1="27.4074849" y1="30.3868055" x2="50.4987726" y2="30.3868055" id="Stroke-9" stroke="#2E9C55" stroke-width="4" stroke-linecap="round"></line>
                    </g>
                </g>
            </g>
        </g>
    </g>
</svg>