<?xml version="1.0" standalone="no"?><!DOCTYPE svg PUBLIC "-//W3C//DTD SVG 1.1//EN" "http://www.w3.org/Graphics/SVG/1.1/DTD/svg11.dtd"><svg class="icon" width="48px" height="47.13px" viewBox="0 0 1043 1024" version="1.1" xmlns="http://www.w3.org/2000/svg"><path fill="#E22424" d="M708.266667 682.666667c-19.911111 25.6-42.666667 2.844444-45.511111 0l-312.888889-312.888889c-11.377778-11.377778-14.222222-28.444444-5.688889-39.822222 11.377778-11.377778 25.6-11.377778 39.822222 0l318.577778 318.577777c5.688889 8.533333 14.222222 25.6 5.688889 34.133334z"  /><path fill="#E22424" d="M699.733333 375.466667L384 694.044444c-5.688889 5.688889-28.444444 14.222222-39.822222 2.844445-14.222222-14.222222-8.533333-31.288889 2.844444-42.666667l312.888889-312.888889c11.377778-11.377778 31.288889-19.911111 42.666667-8.533333 14.222222 14.222222 11.377778 31.288889-2.844445 42.666667z"  /><path fill="#E22424" d="M531.911111 56.888889c250.311111 0 455.111111 204.8 455.111111 455.111111s-204.8 455.111111-455.111111 455.111111-455.111111-204.8-455.111111-455.111111 204.8-455.111111 455.111111-455.111111m0-56.888889C250.311111 0 19.911111 230.4 19.911111 512s230.4 512 512 512 512-230.4 512-512-227.555556-512-512-512z"  /></svg>