<?xml version="1.0" encoding="UTF-8"?>
<svg width="96px" height="96px" viewBox="0 0 96 96" version="1.1" xmlns="http://www.w3.org/2000/svg" xmlns:xlink="http://www.w3.org/1999/xlink">
    <title>Fill 1</title>
    <g id="管理" stroke="none" stroke-width="1" fill="none" fill-rule="evenodd">
        <g id="管理组切图" transform="translate(-1850.000000, -178.000000)" fill="#C71D23">
            <path d="M1922.29733,220.667259 L1895.03733,220.667259 C1893.72933,220.667259 1892.668,221.728607 1892.66667,223.037959 L1892.664,228.963374 C1892.664,230.272726 1893.72533,231.334074 1895.03467,231.334074 L1895.03467,231.334074 L1911.63067,231.334074 C1912.93867,231.334074 1914,232.395422 1914,233.70344 L1914,234.296782 L1914,234.88879 C1914,238.816845 1910.81733,242.000889 1906.88933,242.000889 L1884.36933,242.000889 C1883.06,242.000889 1881.99867,240.939541 1881.99867,239.630189 L1881.99867,217.11121 C1881.99867,213.184489 1885.18267,210.000444 1889.10933,210.000444 L1922.28933,209.999111 C1923.59867,209.999111 1924.65867,208.939096 1924.66,207.631078 L1924.66667,201.704329 C1924.668,200.394978 1923.60667,199.33363 1922.29867,199.33363 L1922.29733,199.33363 L1889.112,199.33363 C1879.29333,199.33363 1871.33467,207.29374 1871.33333,217.112543 L1871.33333,250.297004 C1871.33333,251.605022 1872.39467,252.66637 1873.704,252.66637 L1908.66667,252.66637 C1917.504,252.66637 1924.66667,245.503604 1924.66667,236.667481 L1924.66667,223.037959 C1924.66667,221.728607 1923.60533,220.667259 1922.29733,220.667259 M1898,274 C1871.49067,274 1850,252.510368 1850,226.000667 C1850,199.489632 1871.49067,178 1898,178 C1924.50933,178 1946,199.489632 1946,226.000667 C1946,252.510368 1924.50933,274 1898,274" id="Fill-1"></path>
        </g>
    </g>
</svg>