<?xml version="1.0" encoding="UTF-8"?>
<svg width="96px" height="94px" viewBox="0 0 96 94" version="1.1" xmlns="http://www.w3.org/2000/svg" xmlns:xlink="http://www.w3.org/1999/xlink">
    <title>Fill 1</title>
    <g id="管理" stroke="none" stroke-width="1" fill="none" fill-rule="evenodd">
        <g id="管理组切图" transform="translate(-2251.000000, -180.000000)" fill="#1A1515">
            <path d="M2299,180 C2272.49381,180 2251,201.574112 2251,228.19003 C2251,249.480849 2264.75346,267.54453 2283.82533,273.916613 C2286.22422,274.362699 2287.10492,272.871225 2287.10492,271.598404 C2287.10492,270.450072 2287.06041,266.653156 2287.03974,262.626414 C2273.6861,265.541533 2270.86832,256.940616 2270.86832,256.940616 C2268.68484,251.371327 2265.53878,249.889429 2265.53878,249.889429 C2261.18375,246.8985 2265.86706,246.959946 2265.86706,246.959946 C2270.68709,247.299897 2273.22508,251.92674 2273.22508,251.92674 C2277.50619,259.29314 2284.45406,257.16326 2287.19315,255.931936 C2287.62397,252.818114 2288.86792,250.691426 2290.24064,249.488031 C2279.57919,248.270273 2268.37166,244.137396 2268.37166,225.672319 C2268.37166,220.411858 2270.24674,216.112198 2273.31728,212.737428 C2272.8189,211.52366 2271.17593,206.622302 2273.78227,199.984482 C2273.78227,199.984482 2277.8138,198.690115 2286.98569,204.924942 C2290.81453,203.857209 2294.92078,203.321747 2299,203.302594 C2303.07922,203.321747 2307.18865,203.857209 2311.02464,204.924942 C2320.1862,198.690115 2324.21137,199.984482 2324.21137,199.984482 C2326.82407,206.622302 2325.1811,211.52366 2324.68272,212.737428 C2327.76042,216.112198 2329.62198,220.411858 2329.62198,225.672319 C2329.62198,244.182085 2318.39299,248.256707 2307.70451,249.449727 C2309.42618,250.945192 2310.96026,253.877866 2310.96026,258.373836 C2310.96026,264.821731 2310.90541,270.011168 2310.90541,271.598404 C2310.90541,272.881599 2311.76863,274.383447 2314.2017,273.911027 C2333.26323,267.531762 2347,249.474465 2347,228.19003 C2347,201.574112 2325.50937,180 2299,180" id="Fill-1"></path>
        </g>
    </g>
</svg>