<?xml version="1.0" encoding="UTF-8"?>
<svg width="63px" height="51px" viewBox="0 0 63 51" version="1.1" xmlns="http://www.w3.org/2000/svg" xmlns:xlink="http://www.w3.org/1999/xlink">
    <title>icon</title>
    <g id="管理" stroke="none" stroke-width="1" fill="none" fill-rule="evenodd">
        <g id="管理组切图" transform="translate(-1486.000000, -173.000000)">
            <g id="icon" transform="translate(1486.000000, 178.000000)">
                <path d="M38,0 C42.418278,-8.11624501e-16 46,3.581722 46,8 L46,38 C46,42.418278 42.418278,46 38,46 L8,46 C3.581722,46 5.41083001e-16,42.418278 0,38 L0,8 C-5.41083001e-16,3.581722 3.581722,8.11624501e-16 8,0 L38,0 Z M37,3 L9,3 C5.6862915,3 3,5.6862915 3,9 L3,9 L3,37 C3,40.3137085 5.6862915,43 9,43 L9,43 L37,43 C40.3137085,43 43,40.3137085 43,37 L43,37 L43,9 C43,5.6862915 40.3137085,3 37,3 L37,3 Z" id="形状结合" fill="#2F2F2F"></path>
                <path d="M9,17.387207 C9.30078125,26.7514648 10.8707682,31.4335937 13.7099609,31.4335938 C17.96875,31.4335938 17.0029297,22.1967773 21.0874023,22.1967773 C25.171875,22.1967773 24.8647461,34.7861328 31.0854492,34.7861328 C35.2325846,34.7861328 37.4638672,27.1907552 37.7792969,12" id="路径-2" stroke="#2F2F2F" stroke-width="3" stroke-linecap="round" stroke-linejoin="round" transform="translate(23.389648, 23.393066) scale(-1, 1) translate(-23.389648, -23.393066) "></path>
                <rect id="矩形" stroke="#FFFFFF" stroke-width="3" fill="#98DF29" transform="translate(45.079010, 12.958012) rotate(-44.000000) translate(-45.079010, -12.958012) " x="29.0790097" y="7.45801244" width="32" height="11" rx="4"></rect>
            </g>
        </g>
    </g>
</svg>