<?xml version="1.0" encoding="UTF-8"?>
<svg width="100px" height="100px" viewBox="0 0 100 100" version="1.1" xmlns="http://www.w3.org/2000/svg" xmlns:xlink="http://www.w3.org/1999/xlink">
    <title>Individual</title>
    <g id="签署" stroke="none" stroke-width="1" fill="none" fill-rule="evenodd">
        <g id="CLA_Sign_Web_en1" transform="translate(-1284.000000, -990.000000)">
            <g id="guide" transform="translate(400.000000, 810.000000)">
                <g id="tab" transform="translate(129.000000, 180.000000)">
                    <g id="individual" transform="translate(754.000000, 0.000000)">
                        <g id="Individual" transform="translate(1.000000, 0.000000)">
                            <rect id="Rectangle" x="0" y="0" width="100" height="100"></rect>
                            <path d="M49.9331877,52.2046197 C39.3894338,52.2046197 30.8094338,43.6356056 30.8094338,33.1063662 C30.8094338,22.5750986 39.3823262,14 49.9331877,14 C60.4830338,14 69.0569415,22.5690141 69.0569415,33.0992676 C69.0569415,43.6295211 60.4769415,52.2046197 49.9331877,52.2046197 Z" id="Stroke-1" stroke="#1D1D1B" stroke-width="4"></path>
                            <path d="M57.0259538,33.3390986 C57.0259538,37.2453521 53.8437385,40.4255211 49.9334923,40.4255211 C46.0222308,40.4255211 42.8400154,37.2473803 42.8400154,33.3411268" id="Stroke-3" stroke="#2E9C55" stroke-width="4" stroke-linecap="round"></path>
                            <path d="M74.6176954,54.9517746 L79.4844338,58.1157183 C81.5933877,59.4867606 82.8656646,61.8292958 82.8656646,64.3432113 L82.8656646,85.7251831 L16.9996954,85.7251831 L16.9996954,64.3432113 C16.9996954,61.8292958 18.2719723,59.4867606 20.3809262,58.1157183 L25.2476646,54.9517746" id="Stroke-5" stroke="#1D1D1B" stroke-width="4"></path>
                            <line x1="63.3999292" y1="70.2650592" x2="36.4658369" y2="69.951707" id="Stroke-7" stroke="#1D1D1B" stroke-width="4" stroke-linecap="round"></line>
                        </g>
                    </g>
                </g>
            </g>
        </g>
    </g>
</svg>