<?xml version="1.0" encoding="UTF-8"?>
<svg width="66px" height="46px" viewBox="0 0 66 46" version="1.1" xmlns="http://www.w3.org/2000/svg" xmlns:xlink="http://www.w3.org/1999/xlink">
    <title>logo</title>
    <defs>
        <linearGradient x1="0%" y1="50%" x2="100%" y2="50%" id="linearGradient-1">
            <stop stop-color="#C2C2C2" offset="0%"></stop>
            <stop stop-color="#D6D6D6" offset="100%"></stop>
        </linearGradient>
        <linearGradient x1="56.5539883%" y1="13.3604953%" x2="14.3421693%" y2="86.6395047%" id="linearGradient-2">
            <stop stop-color="#EDEDED" offset="0%"></stop>
            <stop stop-color="#DDDDDD" offset="100%"></stop>
        </linearGradient>
        <linearGradient x1="28.4249814%" y1="27.0729137%" x2="73.7290686%" y2="78.72799%" id="linearGradient-3">
            <stop stop-color="#97DB30" offset="0%"></stop>
            <stop stop-color="#2E9C55" offset="100%"></stop>
        </linearGradient>
        <linearGradient x1="0%" y1="50%" x2="100%" y2="50%" id="linearGradient-4">
            <stop stop-color="#F7F7F7" offset="0%"></stop>
            <stop stop-color="#E8E8E8" offset="100%"></stop>
        </linearGradient>
    </defs>
    <g id="签署" stroke="none" stroke-width="1" fill="none" fill-rule="evenodd">
        <g id="CLA_Sign_Web_1" transform="translate(-400.000000, -22.000000)">
            <g id="logo" transform="translate(400.000000, 22.000000)">
                <path d="M53.5468025,13.8359375 L65.4061775,13.4983318 C65.4061775,13.4983318 65.0975809,6.53196718 61.1014813,6.46931535 C57.1053817,6.40666351 54.7024742,11.5675948 53.5468025,13.8359375" id="Fill-1" fill="url(#linearGradient-1)"></path>
                <path d="M56.3472767,6.28904801 C56.5856337,6.28734839 56.6940564,6.58903125 56.5054247,6.73395522 C54.1747279,8.52438919 50.59941,15.3207877 47.3162273,22.3966517 L46.8704757,23.3628306 C42.8776055,32.0660407 39.4299606,40.8665883 39.3682602,41.0274636 C39.2464333,41.3453926 36.4904645,47.5819648 32.1942015,45.3319314 C28.6495467,43.4754629 27.968851,39.4095225 27.8391329,38.0437728 C27.8144865,37.784588 27.5960196,37.5874828 27.3345296,37.5896346 L27.3345296,37.5896346 L10.7700705,37.7182049 C10.5185255,37.7202491 10.3493515,37.4623555 10.4525855,37.2340491 C11.2171239,35.5418708 13.8503397,29.7135441 16.482976,23.8865494 L16.8776334,23.0130274 L16.8776334,23.0130274 L17.2708803,22.1426284 C18.2127413,20.0579467 19.1302561,18.0271603 19.9359668,16.2438516 C22.7743977,18.7318143 26.1413614,22.0396027 27.8211211,25.0085094 L27.8211211,25.0085094 C27.864349,25.0802628 27.9352973,25.1195268 28.0112915,25.1181854 C28.1288826,25.1161096 28.2225264,25.0191005 28.2204506,24.9015094 L28.2204506,24.9015094 L28.2209921,24.6100408 C28.2946105,18.5415039 32.1955457,9.18416579 32.7884392,7.79604239 L32.8364374,7.68421106 L32.8364374,7.68421106 L32.851671,7.64900024 L32.863628,7.62152381 C32.3937481,7.27337693 31.9595353,6.88175172 31.5595725,6.46353692 Z" id="形状结合" fill="url(#linearGradient-2)"></path>
                <path d="M29.4910361,21.0218507 L29.4910361,21.9202882 L19.7879111,21.9202882 L19.7879111,21.0218507 L29.4910361,21.0218507 Z M24.775186,1.6171875 C26.028636,6.52089653 31.6249275,13.601719 31.6249275,13.601719 C29.5198678,16.2374261 29.417174,20.2762326 29.4121875,20.6379512 L29.4119341,20.6640625 L19.8222959,20.6640625 L19.8222959,20.6640625 L19.8218219,20.6379512 C19.8138189,20.2762326 19.6787531,16.2374261 17.6093025,13.601719 C17.6093025,13.601719 23.2055414,6.52089653 24.4590441,1.6171875 L24.4590441,1.6171875 L24.4590441,8.48513073 C24.1214572,8.86193065 23.2692967,9.68519813 22.1721261,9.809506 C22.1721261,9.809506 22.1618515,13.9689077 24.617115,13.9689077 C26.9223406,13.9689077 27.0540678,10.2712845 27.061595,9.84869896 L27.0620512,9.809506 C25.9648807,9.68519813 25.1127729,8.86193065 24.775186,8.48513073 L24.775186,8.48513073 Z" id="形状结合" fill="url(#linearGradient-3)" transform="translate(24.617115, 11.768738) rotate(-195.000000) translate(-24.617115, -11.768738) "></path>
                <path d="M0.304961432,39.0486369 L25.9351192,39.0300727 C26.1512833,39.0298595 26.3304677,39.1950148 26.3449146,39.4085004 C26.4124052,40.3992187 26.8424692,43.1486059 29.4751427,45.4327204 C29.6232771,45.5610678 29.5316364,45.8026127 29.3347708,45.8027194 L7.18846612,45.8203256 C4.65562706,45.8223503 2.27092237,44.5446374 0.971350495,42.3934579 C0.470561432,41.5645876 0.0993629948,40.5657609 0.00103799481,39.3757468 C-0.0135166927,39.2000292 0.126855182,39.0487436 0.304961432,39.0486369" id="Fill-3" fill="url(#linearGradient-4)"></path>
            </g>
        </g>
    </g>
</svg>