<?xml version="1.0" encoding="UTF-8"?>
<svg width="80px" height="80px" viewBox="0 0 80 80" version="1.1" xmlns="http://www.w3.org/2000/svg" xmlns:xlink="http://www.w3.org/1999/xlink">
    <title>manage</title>
    <defs>
        <path d="M0,40 C0,62.0912821 17.9087179,80 40,80 L40,80 C62.0902564,80 79.9989744,62.0912821 79.9989744,40 L79.9989744,40 C79.9989744,17.9097436 62.0902564,0.00102564103 40,0.00102564103 L40,0.00102564103 C17.9087179,0.00102564103 0,17.9097436 0,40" id="path-1"></path>
        <linearGradient x1="6.69158566%" y1="24.9948617%" x2="93.3096915%" y2="75.0038512%" id="linearGradient-3">
            <stop stop-color="#93D831" offset="0%"></stop>
            <stop stop-color="#38A352" offset="100%"></stop>
        </linearGradient>
    </defs>
    <g id="签署" stroke="none" stroke-width="1" fill="none" fill-rule="evenodd">
        <g id="CLA_Sign_Web_en1" transform="translate(-920.000000, -1954.000000)">
            <g id="guide" transform="translate(400.000000, 810.000000)">
                <g id="corporation_guide" transform="translate(0.000000, 140.000000)">
                    <g id="s6" transform="translate(62.000000, 1004.000000)">
                        <g id="manage" transform="translate(458.000000, 0.000000)">
                            <g id="Group-3">
                                <mask id="mask-2" fill="white">
                                    <use xlink:href="#path-1"></use>
                                </mask>
                                <g id="Clip-2"></g>
                                <path d="M0,40 C0,62.0912821 17.9087179,80 40,80 L40,80 C62.0902564,80 79.9989744,62.0912821 79.9989744,40 L79.9989744,40 C79.9989744,17.9097436 62.0902564,0.00102564103 40,0.00102564103 L40,0.00102564103 C17.9087179,0.00102564103 0,17.9097436 0,40" id="Fill-1" fill="url(#linearGradient-3)" mask="url(#mask-2)"></path>
                            </g>
                            <g id="Group-14" transform="translate(21.538462, 24.615385)" stroke="#FFFFFF" stroke-width="2">
                                <polyline id="Stroke-4" points="36.4110769 8.72738462 36.4110769 23.6689231 0.511589744 23.6689231 0.511589744 0.196102564 36.4110769 0.196102564 36.4110769 3.57251282"></polyline>
                                <line x1="10.6948718" y1="8.48102564" x2="25.1502564" y2="8.48102564" id="Stroke-6" stroke-linecap="round"></line>
                                <line x1="8.79589744" y1="15.3850256" x2="28.1271795" y2="15.3850256" id="Stroke-8" stroke-linecap="round"></line>
                                <line x1="8.79589744" y1="30.5733333" x2="28.1271795" y2="30.5733333" id="Stroke-10" stroke-linecap="round"></line>
                                <line x1="18.4613333" y1="23.6693333" x2="18.4613333" y2="30.5729231" id="Stroke-12" stroke-linecap="round"></line>
                            </g>
                        </g>
                    </g>
                </g>
            </g>
        </g>
    </g>
</svg>