<?xml version="1.0" standalone="no"?><!DOCTYPE svg PUBLIC "-//W3C//DTD SVG 1.1//EN" "http://www.w3.org/Graphics/SVG/1.1/DTD/svg11.dtd"><svg class="icon" width="200px" height="200.00px" viewBox="0 0 1024 1024" version="1.1" xmlns="http://www.w3.org/2000/svg"><path fill="#515151" d="M496.708267 566.818133c14.6432 12.0832 33.211733 4.4032 67.549867-11.195733 10.8544-4.9152 15.598933-17.7152 10.683733-28.535467-4.983467-10.8544-17.749333-15.6672-28.5696-10.683733-4.164267 1.911467-7.7824 3.549867-11.025067 4.949333 1.160533-9.9328 1.1264-21.674667-2.389333-34.269867-2.116267-7.4752-8.567467-30.378667-29.661867-35.328-24.507733-5.7344-44.032 15.5648-76.117333 51.029333l-15.5648 17.032533c-0.273067-4.1984-0.546133-8.533333-0.785067-12.424533-1.024-17.783467-2.321067-39.936-6.826667-61.917867-5.256533-25.531733-20.5824-31.6416-29.2864-33.006933-11.946667-1.9456-47.616-7.509333-139.912533 156.023467-5.8368 10.410667-2.184533 23.517867 8.192 29.354667 3.345067 1.911467 6.997333 2.798933 10.581333 2.798933 7.509333 0 14.848-3.959467 18.807467-10.9568 32.836267-58.231467 70.7584-111.786667 90.624-129.160533 2.935467 16.896 3.925333 34.030933 4.8128 49.322667 1.877333 32.529067 3.242667 56.081067 24.405333 63.624533 21.333333 7.816533 40.379733-12.9024 49.595733-22.8352l17.339733-18.978133c10.820267-12.014933 23.6544-26.180267 32.187733-33.416533 0.034133 0.170667 0.1024 0.341333 0.136533 0.512 3.1744 11.298133 0.648533 22.050133-1.604267 31.5392C487.424 540.637867 483.771733 556.202667 496.708267 566.818133zM863.812267 279.688533 816.605867 326.894933 690.210133 453.3248 585.728 557.806933 566.0672 670.139733 672.5632 637.713067 690.210133 620.066133 819.6096 490.7008 947.234133 363.144533ZM736.529067 706.1504c0 62.327467-50.722133 113.0496-113.0496 113.0496L223.914667 819.2c-62.327467 0-113.0496-50.722133-113.0496-113.0496L110.865067 317.8496C110.8992 255.488 161.5872 204.8 223.914667 204.8l399.530667 0c62.327467 0 113.0496 50.688 113.0496 113.0496l0 9.045333 34.133333 0L770.628267 317.8496C770.6624 236.544 704.750933 170.666667 623.479467 170.666667L223.914667 170.666667C142.6432 170.666667 76.765867 236.544 76.765867 317.8496l0 388.3008C76.765867 787.421867 142.6432 853.333333 223.914667 853.333333l399.530667 0c81.271467 0 147.182933-65.911467 147.182933-147.182933l0-20.855467-34.133333 0L736.494933 706.1504z" /></svg>