<?xml version="1.0" standalone="no"?><!DOCTYPE svg PUBLIC "-//W3C//DTD SVG 1.1//EN" "http://www.w3.org/Graphics/SVG/1.1/DTD/svg11.dtd"><svg class="icon" width="48px" height="48.00px" viewBox="0 0 1024 1024" version="1.1" xmlns="http://www.w3.org/2000/svg"><path fill="#ffffff" d="M316.8 454.08a32 32 0 0 0-22.613333 9.386667 32 32 0 0 0 0 45.226666l135.786666 135.786667a32 32 0 0 0 45.226667-45.226667L339.413333 463.466667a32 32 0 0 0-22.613333-9.386667z"  /><path fill="#ffffff" d="M829.28 213.333333a32 32 0 0 0-22.666667 9.386667l-376.64 376.533333a32 32 0 1 0 45.226667 45.226667l376.693333-376.693333a32 32 0 0 0 0-45.226667 32 32 0 0 0-22.613333-9.226667z"  /><path fill="#ffffff" d="M512 64c-5.333333 0-10.666667 0-16 0.266667C259.573333 72.426667 68.48 266.666667 64 503.466667A448 448 0 0 0 508 960H512c241.44 0 441.653333-194.346667 448-436.16A445.706667 445.706667 0 0 0 928.426667 346.666667a32 32 0 0 0-51.626667-11.413334 32 32 0 0 0-7.466667 35.68 384 384 0 0 1-320.853333 523.413334c-12.16 1.12-24.266667 1.653333-36.213333 1.653333a384 384 0 0 1-19.2-767.52C499.413333 128 505.706667 128 512 128a381.28 381.28 0 0 1 206.186667 60.266667 32 32 0 0 0 17.226666 5.333333 30.826667 30.826667 0 0 0 21.333334-8.266667l1.6-1.493333a31.093333 31.093333 0 0 0-4.586667-48.853333A445.28 445.28 0 0 0 512 64z"  /></svg>