<?xml version="1.0" encoding="UTF-8"?>
<svg width="80px" height="80px" viewBox="0 0 80 80" version="1.1" xmlns="http://www.w3.org/2000/svg" xmlns:xlink="http://www.w3.org/1999/xlink">
    <title>send</title>
    <defs>
        <path d="M0,40 C0,62.0912821 17.9087179,80 40,80 L40,80 C62.0912821,80 80,62.0912821 80,40 L80,40 C80,17.9097436 62.0912821,0.00102564103 40,0.00102564103 L40,0.00102564103 C17.9087179,0.00102564103 0,17.9097436 0,40" id="path-1"></path>
        <linearGradient x1="6.69149987%" y1="24.9955029%" x2="93.3084953%" y2="75.0032101%" id="linearGradient-3">
            <stop stop-color="#93D831" offset="0%"></stop>
            <stop stop-color="#38A352" offset="100%"></stop>
        </linearGradient>
    </defs>
    <g id="签署" stroke="none" stroke-width="1" fill="none" fill-rule="evenodd">
        <g id="CLA_Sign_Web_en1" transform="translate(-920.000000, -1534.000000)">
            <g id="guide" transform="translate(400.000000, 810.000000)">
                <g id="corporation_guide" transform="translate(0.000000, 140.000000)">
                    <g id="s3" transform="translate(520.000000, 576.000000)">
                        <g id="send" transform="translate(0.000000, 8.000000)">
                            <g id="Group-3">
                                <mask id="mask-2" fill="white">
                                    <use xlink:href="#path-1"></use>
                                </mask>
                                <g id="Clip-2"></g>
                                <path d="M0,40 C0,62.0912821 17.9087179,80 40,80 L40,80 C62.0912821,80 80,62.0912821 80,40 L80,40 C80,17.9097436 62.0912821,0.00102564103 40,0.00102564103 L40,0.00102564103 C17.9087179,0.00102564103 0,17.9097436 0,40" id="Fill-1" fill="url(#linearGradient-3)" mask="url(#mask-2)"></path>
                            </g>
                            <g id="Group-10" transform="translate(20.512821, 24.615385)" stroke="#FFFFFF" stroke-width="2">
                                <line x1="7.32430769" y1="14.9333333" x2="20.5078974" y2="14.9333333" id="Stroke-4" stroke-linecap="round"></line>
                                <line x1="7.32430769" y1="8.468" x2="31.6504615" y2="8.65979487" id="Stroke-6" stroke-linecap="round"></line>
                                <path d="M34.2758974,30.2808205 L28.7969231,24.7956923 C28.4441026,24.4438974 27.9682051,24.2777436 27.5035897,24.3085128 C27.4748718,24.3085128 27.4512821,24.302359 27.4276923,24.302359 L0.776410256,24.302359 L0.776410256,0.488 L38.1979487,0.488 L38.1979487,24.302359 L35.6041026,24.302359" id="Stroke-8"></path>
                            </g>
                        </g>
                    </g>
                </g>
            </g>
        </g>
    </g>
</svg>