<?xml version="1.0" encoding="UTF-8"?>
<svg width="80px" height="80px" viewBox="0 0 80 80" version="1.1" xmlns="http://www.w3.org/2000/svg" xmlns:xlink="http://www.w3.org/1999/xlink">
    <title>sign</title>
    <defs>
        <path d="M0,40 C0,62.0912821 17.9087179,80 40,80 L40,80 C62.0912821,80 80,62.0912821 80,40 L80,40 C80,17.9097436 62.0912821,0.00102564103 40,0.00102564103 L40,0.00102564103 C17.9087179,0.00102564103 0,17.9097436 0,40" id="path-1"></path>
        <linearGradient x1="6.69149987%" y1="24.9955029%" x2="93.3084953%" y2="75.0032101%" id="linearGradient-3">
            <stop stop-color="#93D831" offset="0%"></stop>
            <stop stop-color="#38A352" offset="100%"></stop>
        </linearGradient>
    </defs>
    <g id="签署" stroke="none" stroke-width="1" fill="none" fill-rule="evenodd">
        <g id="CLA_Sign_Web_en1" transform="translate(-920.000000, -1394.000000)">
            <g id="guide" transform="translate(400.000000, 810.000000)">
                <g id="corporation_guide" transform="translate(0.000000, 140.000000)">
                    <g id="s2" transform="translate(80.000000, 444.000000)">
                        <g id="sign" transform="translate(440.000000, 0.000000)">
                            <g id="Group-3">
                                <mask id="mask-2" fill="white">
                                    <use xlink:href="#path-1"></use>
                                </mask>
                                <g id="Clip-2"></g>
                                <path d="M0,40 C0,62.0912821 17.9087179,80 40,80 L40,80 C62.0912821,80 80,62.0912821 80,40 L80,40 C80,17.9097436 62.0912821,0.00102564103 40,0.00102564103 L40,0.00102564103 C17.9087179,0.00102564103 0,17.9097436 0,40" id="Fill-1" fill="url(#linearGradient-3)" mask="url(#mask-2)"></path>
                            </g>
                            <g id="Group-10" transform="translate(22.564103, 21.538462)" stroke="#FFFFFF" stroke-width="2">
                                <path d="M28.5087179,6.47282051 C29.2635897,7.22769231 29.2635897,8.36102564 28.5087179,9.11589744 L11.1353846,26.4902564 C10.7579487,26.8676923 10.3794872,27.0553846 10.0030769,27.0553846 L1.88205128,27.8123077 L2.63794872,19.6923077 C2.63794872,19.3148718 2.82666667,18.7476923 3.20410256,18.5579487 L20.5774359,1.18564103 C21.3323077,0.42974359 22.465641,0.42974359 23.2215385,1.18564103 L28.5087179,6.47282051 Z" id="Stroke-4"></path>
                                <line x1="19.5513846" y1="29.124" x2="34.190359" y2="29.124" id="Stroke-6" stroke-linecap="round"></line>
                                <line x1="0.681128205" y1="36.3045128" x2="34.1908718" y2="36.3045128" id="Stroke-8" stroke-linecap="round"></line>
                            </g>
                        </g>
                    </g>
                </g>
            </g>
        </g>
    </g>
</svg>