<?xml version="1.0" encoding="UTF-8"?>
<svg width="80px" height="80px" viewBox="0 0 80 80" version="1.1" xmlns="http://www.w3.org/2000/svg" xmlns:xlink="http://www.w3.org/1999/xlink">
    <title>success</title>
    <defs>
        <path d="M0,40 C0,62.0912821 17.9087179,80 40,80 L40,80 C62.0912821,80 80,62.0912821 80,40 L80,40 C80,17.9097436 62.0912821,0.00102564103 40,0.00102564103 L40,0.00102564103 C17.9087179,0.00102564103 0,17.9097436 0,40" id="path-1"></path>
        <linearGradient x1="6.69149987%" y1="24.9955029%" x2="93.3084953%" y2="75.0032101%" id="linearGradient-3">
            <stop stop-color="#93D831" offset="0%"></stop>
            <stop stop-color="#38A352" offset="100%"></stop>
        </linearGradient>
    </defs>
    <g id="签署" stroke="none" stroke-width="1" fill="none" fill-rule="evenodd">
        <g id="CLA_Sign_Web_en1" transform="translate(-920.000000, -1814.000000)">
            <g id="guide" transform="translate(400.000000, 810.000000)">
                <g id="corporation_guide" transform="translate(0.000000, 140.000000)">
                    <g id="success" transform="translate(520.000000, 864.000000)">
                        <g id="Group-3">
                            <mask id="mask-2" fill="white">
                                <use xlink:href="#path-1"></use>
                            </mask>
                            <g id="Clip-2"></g>
                            <path d="M0,40 C0,62.0912821 17.9087179,80 40,80 L40,80 C62.0912821,80 80,62.0912821 80,40 L80,40 C80,17.9097436 62.0912821,0.00102564103 40,0.00102564103 L40,0.00102564103 C17.9087179,0.00102564103 0,17.9097436 0,40" id="Fill-1" fill="url(#linearGradient-3)" mask="url(#mask-2)"></path>
                        </g>
                        <g id="Group-8" transform="translate(22.564103, 23.589744)" stroke="#FFFFFF" stroke-width="2">
                            <path d="M31.8370256,18.3076923 L31.8370256,30.0215385 C31.8370256,31.2830769 30.8134359,32.3076923 29.5508718,32.3076923 L2.32830769,32.3076923 C1.06676923,32.3076923 0.0421538462,31.2830769 0.0421538462,30.0215385 L0.0421538462,2.8 C0.0421538462,1.53641026 1.06676923,0.512820513 2.32830769,0.512820513 L29.5508718,0.512820513 C30.8134359,0.512820513 31.8370256,1.53641026 31.8370256,2.8 L31.8370256,5.34666667" id="Stroke-4"></path>
                            <path d="M7.20758974,16.9495385 L15.7224615,25.0951795 C16.4629744,25.8356923 17.944,25.8356923 19.0547692,25.0951795 L34.8291282,9.32082051" id="Stroke-6" stroke-linecap="round"></path>
                        </g>
                    </g>
                </g>
            </g>
        </g>
    </g>
</svg>