<?xml version="1.0" standalone="no"?><!DOCTYPE svg PUBLIC "-//W3C//DTD SVG 1.1//EN" "http://www.w3.org/Graphics/SVG/1.1/DTD/svg11.dtd"><svg class="icon" width="48px" height="48.00px" viewBox="0 0 1024 1024" version="1.1" xmlns="http://www.w3.org/2000/svg"><path fill="#515151" d="M735.036742 651.636364l48.733091-70.144c9.169455-13.218909 9.914182-35.234909 1.582545-49.058909L604.988742 232.727273 735.036742 651.636364zM488.625105 1024c27.182545 0 256-128.605091 256-158.859636 0-30.254545-178.082909-643.304727-178.082909-643.304727l137.914182-181.527273c0 0 32.162909-40.308364-32.162909-40.308364L307.702924 0C243.33056 0 264.788015 40.308364 264.788015 40.308364l145.92 181.527273C410.708015 221.835636 232.625105 831.301818 232.625105 865.140364 232.625105 898.978909 461.44256 1024 488.625105 1024zM468.517469 209.175273 339.07456 46.545455l295.098182 0L508.732742 209.175273c0 0 166.074182 628.456727 166.074182 638.603636 0 10.146909-186.181818 107.008-186.181818 107.008s-186.181818-93.230545-186.181818-107.008C302.443287 834.048 468.517469 209.175273 468.517469 209.175273z" /></svg>