<?xml version="1.0" standalone="no"?><!DOCTYPE svg PUBLIC "-//W3C//DTD SVG 1.1//EN" "http://www.w3.org/Graphics/SVG/1.1/DTD/svg11.dtd"><svg class="icon" width="48px" height="48.00px" viewBox="0 0 1024 1024" version="1.1" xmlns="http://www.w3.org/2000/svg"><path fill="#ffffff" d="M744.4 347.1h-51.8c-14.3 0-25.9 11.6-25.9 25.9v51.8c0 14.3 11.6 25.9 25.9 25.9h51.8c14.3 0 25.9-11.6 25.9-25.9V373c-0.1-14.3-11.7-25.9-25.9-25.9zM822 191.8H200.8c-57.2 0-103.5 46.4-103.5 103.5v414.1c0 57.2 46.4 103.5 103.5 103.5H822c57.2 0 103.5-46.4 103.5-103.5V295.3c0-57.2-46.3-103.5-103.5-103.5zM537.3 709.5H226.7c-14.3 0-25.9-11.6-25.9-25.9 0-14.3 11.6-25.9 25.9-25.9h310.6c14.3 0 25.9 11.6 25.9 25.9 0 14.3-11.6 25.9-25.9 25.9z m0-103.6H226.7c-14.3 0-25.9-11.6-25.9-25.9 0-14.3 11.6-25.9 25.9-25.9h310.6c14.3 0 25.9 11.6 25.9 25.9 0 14.3-11.6 25.9-25.9 25.9zM822 450.6c0 28.6-23.2 51.8-51.8 51.8H666.7c-28.6 0-51.8-23.2-51.8-51.8V347.1c0-28.6 23.2-51.8 51.8-51.8h103.5c28.6 0 51.8 23.2 51.8 51.8v103.5z" /></svg>